<?xml version="1.0" encoding="UTF-8"?>
<svg xmlns="http://www.w3.org/2000/svg" xmlns:xlink="http://www.w3.org/1999/xlink" width="2368" height="3352" viewBox="0 0 2368 3352">
<path fill="none" stroke-width="5.6693" stroke-linecap="butt" stroke-linejoin="miter" stroke="rgb(13.729858%, 12.159729%, 12.548828%)" stroke-opacity="1" stroke-miterlimit="22.9256" d="M 7.226562 33516.992188 L 23674.804688 33516.992188 L 23674.804688 8.28125 L 7.226562 8.28125 Z M 7.226562 33516.992188 " transform="matrix(0.1, 0, 0, -0.1, 0, 3352)"/>
<path fill-rule="evenodd" fill="rgb(0%, 0%, 0%)" fill-opacity="1" d="M 1533.980469 1477.949219 L 1533.980469 1737.800781 C 1487.101562 1745.789062 1440.519531 1768.96875 1411.308594 1793.28125 C 1367.921875 1829.371094 1381.738281 1884.941406 1381.738281 1947.621094 C 1381.738281 2055.691406 1373.960938 2616.953125 1387.648438 2675.855469 C 1437.121094 2888.648438 1745.53125 2888.820312 1795.058594 2674.9375 C 1806.390625 2626.03125 1804.050781 1970.628906 1800.828125 1855.578125 C 1798.941406 1788.28125 1756.300781 1786.109375 1648.488281 1733.71875 L 1648.488281 1473.480469 C 1700.019531 1445.988281 1791.171875 1453.71875 1899.320312 1301.820312 C 2112.011719 1003.109375 1941.710938 506.679688 1588.648438 509.449219 C 1146.480469 512.910156 1032.851562 1254.429688 1454.398438 1446.089844 C 1476.019531 1455.921875 1518.570312 1459.460938 1533.980469 1477.949219 Z M 1824.449219 938.601562 C 1760.539062 974.921875 1833.121094 1094.46875 1706.019531 1217.320312 C 1639.351562 1281.769531 1609.070312 1261.769531 1568.839844 1275.140625 C 1523.03125 1290.371094 1516.199219 1377.589844 1610.949219 1367.910156 C 1895.390625 1338.859375 1959.058594 862.101562 1824.449219 938.601562 "/>
<path fill-rule="evenodd" fill="rgb(0%, 0%, 0%)" fill-opacity="1" d="M 640.367188 700.269531 L 640.367188 980.929688 C 640.367188 1018.089844 650.054688 1045.640625 681.445312 1052.941406 L 681.445312 1055.550781 C 684.945312 1055.390625 688.238281 1055.039062 691.339844 1054.5 C 692.574219 1054.609375 693.832031 1054.699219 695.121094 1054.761719 L 695.121094 1053.738281 C 726.511719 1046.441406 736.199219 1018.878906 736.199219 981.730469 L 736.199219 701.070312 C 736.199219 662.898438 717.445312 639.449219 695.121094 631.601562 L 695.121094 627.96875 C 692.175781 628.171875 689.238281 628.628906 686.34375 629.339844 C 684.71875 629.070312 683.082031 628.878906 681.445312 628.769531 L 681.445312 630.808594 C 659.117188 638.648438 640.367188 662.101562 640.367188 700.269531 Z M 1017.371094 701.070312 L 1017.371094 1193.648438 C 980.085938 1465.261719 868.28125 1527.839844 736.199219 1533.550781 L 736.199219 1797.171875 L 736.925781 1797.300781 L 736.929688 1797.070312 C 820.925781 1797.960938 888.441406 1852.839844 888.441406 1920.230469 L 888.425781 1921.050781 L 888.441406 1921.070312 L 888.441406 2671.398438 L 885.65625 2671.398438 C 872.125 2771.257812 786.113281 2848.523438 681.445312 2850.171875 L 681.445312 2848.71875 C 583.035156 2840.886719 503.847656 2766.074219 490.910156 2670.605469 L 488.128906 2670.605469 L 488.128906 1920.28125 L 488.140625 1920.261719 L 488.128906 1919.441406 C 488.128906 1852.039062 555.640625 1797.160156 639.636719 1796.269531 L 639.640625 1796.5 L 640.367188 1796.378906 L 640.367188 1532.75 C 508.28125 1527.039062 396.480469 1464.460938 359.195312 1192.859375 L 359.195312 700.269531 C 359.195312 651.640625 391.546875 611.109375 444.550781 635.640625 C 484.148438 653.96875 473.707031 717.519531 473.703125 769.011719 C 473.695312 875.519531 473.703125 982.03125 473.703125 1088.550781 C 493.339844 1091.230469 593.914062 1092.53125 695.121094 1092.519531 L 695.121094 1093.308594 C 791.554688 1093.199219 884.113281 1091.898438 902.863281 1089.339844 C 902.863281 982.828125 902.871094 876.320312 902.863281 769.800781 C 902.859375 718.308594 892.417969 654.769531 932.015625 636.441406 C 985.019531 611.898438 1017.371094 652.429688 1017.371094 701.070312 "/>
</svg>
